<svg xmlns="http://www.w3.org/2000/svg" viewBox="0 0 280.036 280.036" style="enable-background:new 0 0 280.036 280.036" xml:space="preserve"><path style="fill:#ebebeb" d="M140.018 0c77.331 0 140.014 62.682 140.014 140.014S217.35 280.036 140.018 280.036.004 217.345.004 140.014 62.687 0 140.018 0z"/><path style="fill:#324d5b" d="M201.274 131.272h-52.505V69.998c0-4.839-3.92-8.751-8.751-8.751s-8.751 3.912-8.751 8.751v70.007a8.748 8.748 0 0 0 8.751 8.751h61.256a8.743 8.743 0 0 0 8.751-8.751c0-4.813-3.912-8.733-8.751-8.733z"/><path style="fill:#e2574c" d="M140.018 0C62.687 0 .004 62.682.004 140.014s62.682 140.022 140.014 140.022 140.014-62.691 140.014-140.022S217.349 0 140.018 0zm0 253.784c-62.726 0-113.761-51.035-113.761-113.77 0-62.726 51.035-113.761 113.761-113.761s113.761 51.035 113.761 113.761c0 62.735-51.035 113.77-113.761 113.77z"/></svg>